<?xml version="1.0" encoding="utf-8"?>
<!DOCTYPE svg PUBLIC "-//W3C//DTD SVG 1.1//EN" "http://www.w3.org/Graphics/SVG/1.1/DTD/svg11.dtd">
<svg version="1.1" id="Layer_1" xmlns="http://www.w3.org/2000/svg" xmlns:xlink="http://www.w3.org/1999/xlink" x="0px" y="0px"
	 width="512px" height="512px" viewBox="0 0 512 512" enable-background="new 0 0 512 512" xml:space="preserve">
<g id="icomoon-ignore">
</g>
<path d="M256,0C114.615,0,0,114.615,0,256s114.615,256,256,256s256-114.615,256-256S397.385,0,256,0z M256,464
	c-114.875,0-208-93.125-208-208S141.125,48,256,48s208,93.125,208,208S370.875,464,256,464z"/>
<path d="M199.42,331.324c-12.127,12.127-12.127,31.97,0,44.097l1.159,1.159c12.127,12.127,31.97,12.127,44.097,0l98.53-98.531
	c12.127-12.127,12.126-31.97,0-44.097l-98.531-98.53c-12.127-12.127-31.97-12.127-44.097,0l-1.157,1.157
	c-12.127,12.127-12.127,31.97,0,44.097c0,0,52.215,52.752,74.88,75.417C253.481,276.913,199.42,331.324,199.42,331.324z"/>
</svg>
