<?xml version="1.0" encoding="utf-8"?>
<!DOCTYPE svg PUBLIC "-//W3C//DTD SVG 1.1//EN" "http://www.w3.org/Graphics/SVG/1.1/DTD/svg11.dtd">
<svg version="1.1" xmlns="http://www.w3.org/2000/svg" xmlns:xlink="http://www.w3.org/1999/xlink" width="1024" height="1024" viewBox="0 0 1024 1024">
<g id="icomoon-ignore">
</g>
<path d="M940.168 822.292l-271.516-310.284 271.516-310.304c46.134-46.154 46.134-120.96 0-167.112-46.172-46.134-120.978-46.114-167.112 0.018l-261.054 298.362-261.056-298.362c-46.134-46.134-120.94-46.152-167.112-0.018-46.134 46.152-46.134 120.958 0 167.112l271.516 310.304-271.516 310.284c-46.134 46.134-46.134 120.94-0.020 167.094 46.154 46.152 120.96 46.152 167.132 0l261.056-298.38 261.054 298.38c46.172 46.152 120.978 46.152 167.132 0 46.114-46.154 46.114-120.96-0.020-167.094z"></path>
</svg>
