<?xml version="1.0" encoding="utf-8"?>
<!-- Generated by IcoMoon.io -->
<!DOCTYPE svg PUBLIC "-//W3C//DTD SVG 1.1//EN" "http://www.w3.org/Graphics/SVG/1.1/DTD/svg11.dtd">
<svg version="1.1" xmlns="http://www.w3.org/2000/svg" xmlns:xlink="http://www.w3.org/1999/xlink" width="1024" height="1024" viewBox="0 0 1024 1024">
<g id="icomoon-ignore">
</g>
<path d="M829.145 194.741c-60.414-60.506-105.817-51.435-105.817-51.435l-537.602 537.649-42.364 199.615 199.661-42.364 537.603-537.511c-0.046 0.001 9.072-45.402-51.481-105.954zM331.143 814.262l-68.058 14.643c-6.539-12.295-14.459-24.543-28.918-39.048-14.505-14.505-26.8-22.333-39.094-28.964l14.689-68.058 19.708-19.662c0 0 37.022 0.783 78.833 42.594 41.811 41.765 42.594 78.879 42.594 78.879l-19.754 19.616z"></path>
<path d="M135.109 904.571h745.98v26.999h-745.98v-26.999z"></path>
</svg>
