<?xml version="1.0" encoding="utf-8"?>
<!DOCTYPE svg PUBLIC "-//W3C//DTD SVG 1.1//EN" "http://www.w3.org/Graphics/SVG/1.1/DTD/svg11.dtd">
<svg version="1.1" id="Layer_1" xmlns="http://www.w3.org/2000/svg" xmlns:xlink="http://www.w3.org/1999/xlink" x="0px" y="0px"
	 width="512px" height="512px" viewBox="0 0 512 512" enable-background="new 0 0 512 512" xml:space="preserve">
<g id="icomoon-ignore">
</g>
<path d="M256,512c141.385,0,256-114.615,256-256S397.385,0,256,0S0,114.615,0,256S114.615,512,256,512z M256,48
	c114.875,0,208,93.125,208,208s-93.125,208-208,208S48,370.875,48,256S141.125,48,256,48z"/>
<path d="M312.58,180.676c12.127-12.127,12.127-31.97,0-44.097l-1.159-1.159c-12.127-12.127-31.97-12.127-44.097,0l-98.53,98.531
	c-12.127,12.127-12.126,31.97,0,44.097l98.531,98.53c12.127,12.127,31.97,12.127,44.097,0l1.157-1.157
	c12.127-12.127,12.127-31.97,0-44.097c0,0-52.215-52.752-74.88-75.417C258.519,235.087,312.58,180.676,312.58,180.676z"/>
</svg>
