<?xml version="1.0" encoding="utf-8"?>
<!-- Generated by IcoMoon.io -->
<!DOCTYPE svg PUBLIC "-//W3C//DTD SVG 1.1//EN" "http://www.w3.org/Graphics/SVG/1.1/DTD/svg11.dtd">
<svg version="1.1" xmlns="http://www.w3.org/2000/svg" xmlns:xlink="http://www.w3.org/1999/xlink" width="1024" height="1024" viewBox="0 0 1024 1024">
<g id="icomoon-ignore">
</g>
<path d="M897.96 870.299l-244.501-244.501c45.752-53.815 73.413-123.49 73.413-199.659 0-170.376-138.117-308.497-308.497-308.497-170.376 0-308.497 138.117-308.497 308.497 0 170.376 138.117 308.497 308.497 308.497 89.001 0 169.148-37.74 225.456-98.029l243.909 243.909 10.22-10.216zM418.375 720.698c-162.682 0-294.56-131.878-294.56-294.56s131.878-294.56 294.56-294.56c162.682 0 294.56 131.878 294.56 294.56s-131.878 294.56-294.56 294.56z"></path>
</svg>
